<svg xmlns="http://www.w3.org/2000/svg" fill="none" viewBox="0 0 128 128">
    <path d="M95 38H40c-3.3 0-6 2.7-6 6v45c0 13.8 11.2 25 25 25h12c13.8 0 25-11.2 25-25V44c0-3.3-2.7-6-6-6zm-6 51c0 8.3-6.7 15-15 15H52c-8.3 0-15-6.7-15-15V46h52v43z" />
    <path d="M106 56H95v10h11c3.9 0 7 3.1 7 7v5c0 3.9-3.1 7-7 7H95v10h11c9.4 0 17-7.6 17-17v-5c0-9.4-7.6-17-17-17z" />
    <path d="M59 60c0-2.8 2.2-5 5-5s5 2.2 5 5v18c0 2.8-2.2 5-5 5s-5-2.2-5-5V60z" />
    <style>
        path { fill: #000; }
        @media (prefers-color-scheme: dark) {
            path { fill: #FFF; }
        }
    </style>
</svg>
